<?xml version="1.0" encoding="UTF-8" standalone="no"?>
<svg
   xmlns:dc="http://purl.org/dc/elements/1.1/"
   xmlns:cc="http://creativecommons.org/ns#"
   xmlns:rdf="http://www.w3.org/1999/02/22-rdf-syntax-ns#"
   xmlns:svg="http://www.w3.org/2000/svg"
   xmlns="http://www.w3.org/2000/svg"
   xmlns:sodipodi="http://sodipodi.sourceforge.net/DTD/sodipodi-0.dtd"
   xmlns:inkscape="http://www.inkscape.org/namespaces/inkscape"
   id="svg8"
   version="1.1"
   viewBox="0 0 72.13234 72.13234"
   height="72.132339mm"
   width="72.132339mm"
   sodipodi:docname="xor_white.svg"
   inkscape:version="1.0.1 (3bc2e813f5, 2020-09-07)">
  <sodipodi:namedview
     pagecolor="#ffffff"
     bordercolor="#666666"
     borderopacity="1"
     objecttolerance="10"
     gridtolerance="10"
     guidetolerance="10"
     inkscape:pageopacity="0"
     inkscape:pageshadow="2"
     inkscape:window-width="1920"
     inkscape:window-height="1010"
     id="namedview7"
     showgrid="false"
     fit-margin-top="0"
     fit-margin-left="0"
     fit-margin-right="0"
     fit-margin-bottom="0"
     inkscape:zoom="0.96136884"
     inkscape:cx="397.63946"
     inkscape:cy="140.63099"
     inkscape:window-x="0"
     inkscape:window-y="0"
     inkscape:window-maximized="1"
     inkscape:current-layer="svg8"
     inkscape:document-rotation="0" />
  <defs
     id="defs2" />
  <metadata
     id="metadata5">
    <rdf:RDF>
      <cc:Work
         rdf:about="">
        <dc:format>image/svg+xml</dc:format>
        <dc:type
           rdf:resource="http://purl.org/dc/dcmitype/StillImage" />
        <dc:title />
      </cc:Work>
    </rdf:RDF>
  </metadata>
  <rect
     style="fill:#ffffff;stroke-width:0.264583"
     id="rect832"
     width="72.132339"
     height="72.132339"
     x="0"
     y="4.4408921e-16" />
  <g
     transform="translate(-44.990379,-67.627499)"
     id="layer1"
     style="fill:#ffffff">
    <path
       transform="matrix(0.26458333,0,0,0.26458333,59.630984,82.609427)"
       d="M 43.019531,3.8378906 A 75.85101,75.85101 0 0 0 -32.832031,79.689453 75.85101,75.85101 0 0 0 43.019531,155.53906 75.85101,75.85101 0 0 0 80.978516,145.35742 75.85101,75.85101 0 0 1 43.085938,79.689453 75.85101,75.85101 0 0 1 80.978516,14.019531 75.85101,75.85101 0 0 0 43.019531,3.8378906 Z M 80.978516,14.019531 A 75.85101,75.85101 0 0 1 118.86914,79.689453 75.85101,75.85101 0 0 1 80.978516,145.35742 75.85101,75.85101 0 0 0 118.9375,155.53906 75.85101,75.85101 0 0 0 194.78906,79.689453 75.85101,75.85101 0 0 0 118.9375,3.8378906 75.85101,75.85101 0 0 0 80.978516,14.019531 Z"
       style="fill:#ffffff;stroke:none;stroke-width:0.377953;stroke-linecap:round;stroke-linejoin:round"
       id="path1075" />
  </g>
</svg>
