<?xml version="1.0" encoding="UTF-8" standalone="no"?>
<svg
   xmlns:dc="http://purl.org/dc/elements/1.1/"
   xmlns:cc="http://creativecommons.org/ns#"
   xmlns:rdf="http://www.w3.org/1999/02/22-rdf-syntax-ns#"
   xmlns:svg="http://www.w3.org/2000/svg"
   xmlns="http://www.w3.org/2000/svg"
   xmlns:sodipodi="http://sodipodi.sourceforge.net/DTD/sodipodi-0.dtd"
   xmlns:inkscape="http://www.inkscape.org/namespaces/inkscape"
   id="svg8"
   version="1.1"
   viewBox="0 0 72.13234 72.13234"
   height="72.132339mm"
   width="72.132339mm"
   sodipodi:docname="xor_analytics.svg"
   inkscape:version="1.0.1 (3bc2e813f5, 2020-09-07)"
   inkscape:export-filename="/home/eriveros/code/xor/xorcl/static/img/xor_analytics.png"
   inkscape:export-xdpi="96"
   inkscape:export-ydpi="96">
  <sodipodi:namedview
     pagecolor="#ffffff"
     bordercolor="#666666"
     borderopacity="1"
     objecttolerance="10"
     gridtolerance="10"
     guidetolerance="10"
     inkscape:pageopacity="0"
     inkscape:pageshadow="2"
     inkscape:window-width="1920"
     inkscape:window-height="1010"
     id="namedview7"
     showgrid="false"
     fit-margin-top="0"
     fit-margin-left="0"
     fit-margin-right="0"
     fit-margin-bottom="0"
     inkscape:zoom="0.96136884"
     inkscape:cx="357.0723"
     inkscape:cy="140.63099"
     inkscape:window-x="0"
     inkscape:window-y="0"
     inkscape:window-maximized="1"
     inkscape:current-layer="svg8"
     inkscape:document-rotation="0" />
  <defs
     id="defs2">
    <marker
       style="overflow:visible;"
       id="Arrow2Send"
       refX="0.0"
       refY="0.0"
       orient="auto"
       inkscape:stockid="Arrow2Send"
       inkscape:isstock="true">
      <path
         transform="scale(0.3) rotate(180) translate(-2.3,0)"
         d="M 8.7185878,4.0337352 L -2.2072895,0.016013256 L 8.7185884,-4.0017078 C 6.9730900,-1.6296469 6.9831476,1.6157441 8.7185878,4.0337352 z "
         style="fill-rule:evenodd;stroke-width:0.625;stroke-linejoin:round;stroke:#ffffff;stroke-opacity:1;fill:#ffffff;fill-opacity:1"
         id="path868" />
    </marker>
    <marker
       style="overflow:visible;"
       id="Arrow2Lend"
       refX="0.0"
       refY="0.0"
       orient="auto"
       inkscape:stockid="Arrow2Lend"
       inkscape:isstock="true">
      <path
         transform="scale(1.1) rotate(180) translate(1,0)"
         d="M 8.7185878,4.0337352 L -2.2072895,0.016013256 L 8.7185884,-4.0017078 C 6.9730900,-1.6296469 6.9831476,1.6157441 8.7185878,4.0337352 z "
         style="fill-rule:evenodd;stroke-width:0.625;stroke-linejoin:round;stroke:#000000;stroke-opacity:1;fill:#000000;fill-opacity:1"
         id="path856" />
    </marker>
  </defs>
  <metadata
     id="metadata5">
    <rdf:RDF>
      <cc:Work
         rdf:about="">
        <dc:format>image/svg+xml</dc:format>
        <dc:type
           rdf:resource="http://purl.org/dc/dcmitype/StillImage" />
        <dc:title></dc:title>
      </cc:Work>
    </rdf:RDF>
  </metadata>
  <g
     transform="translate(-44.990379,-67.627499)"
     id="layer1"
     style="fill:#ffffff;stroke:#ffffff">
    <path
       transform="matrix(0.26458333,0,0,0.26458333,59.630984,82.609427)"
       d="M 43.019531,3.8378906 A 75.85101,75.85101 0 0 0 -32.832031,79.689453 75.85101,75.85101 0 0 0 43.019531,155.53906 75.85101,75.85101 0 0 0 80.978516,145.35742 75.85101,75.85101 0 0 1 43.085938,79.689453 75.85101,75.85101 0 0 1 80.978516,14.019531 75.85101,75.85101 0 0 0 43.019531,3.8378906 Z M 80.978516,14.019531 A 75.85101,75.85101 0 0 1 118.86914,79.689453 75.85101,75.85101 0 0 1 80.978516,145.35742 75.85101,75.85101 0 0 0 118.9375,155.53906 75.85101,75.85101 0 0 0 194.78906,79.689453 75.85101,75.85101 0 0 0 118.9375,3.8378906 75.85101,75.85101 0 0 0 80.978516,14.019531 Z"
       style="fill:#ffffff;stroke:#ffffff;stroke-width:0.377953;stroke-linecap:round;stroke-linejoin:round"
       id="path1075" />
  </g>
  <path
     style="fill:none;stroke:#ffffff;stroke-width:1.27;stroke-linecap:butt;stroke-linejoin:miter;stroke-miterlimit:4;stroke-dasharray:none;stroke-opacity:1;marker-end:url(#Arrow2Send)"
     d="m 28.872192,42.954052 3.528658,-6.111816 4.284308,4.284305 6.152505,-10.656452"
     id="path833"
     sodipodi:nodetypes="cccc" />
</svg>
